<?xml version="1.0" encoding="UTF-8"?>
<!DOCTYPE svg PUBLIC "-//W3C//DTD SVG 1.1//EN" "http://www.w3.org/Graphics/SVG/1.1/DTD/svg11.dtd">
<!-- Creator: CorelDRAW X7 -->
<svg xmlns="http://www.w3.org/2000/svg" xml:space="preserve" width="2.97954in" height="2.97954in" version="1.1" style="shape-rendering:geometricPrecision; text-rendering:geometricPrecision; image-rendering:optimizeQuality; fill-rule:evenodd; clip-rule:evenodd"
viewBox="0 0 966 966"
 xmlns:xlink="http://www.w3.org/1999/xlink">
 <defs>
  <style type="text/css">
   <![CDATA[
    .fil0 {fill:#FEFEFE}
    .fil1 {fill:#282829}
   ]]>
  </style>
 </defs>
 <g id="Layer_x0020_1">
  <metadata id="CorelCorpID_0Corel-Layer"/>
  <g id="_2343617378416">
   <circle class="fil0" cx="483" cy="483" r="483"/>
   <g>
    <path class="fil1" d="M442 412l127 0c34,0 29,5 41,11 19,11 19,22 28,35 6,8 6,28 4,37 -5,20 -5,8 -11,23 -2,5 -10,11 -17,18 -5,5 -13,6 -17,9 -3,2 -3,3 -4,4 -5,4 -80,2 -103,2l-91 0c-18,0 -15,-2 -25,8l1 156c3,2 5,4 10,5l31 -1c9,0 7,1 13,-3 0,-17 0,-79 1,-87 3,-29 7,-22 62,-22 31,0 82,3 109,-2 9,-2 12,-5 19,-8 6,-2 16,-4 20,-9 9,-9 9,-5 16,-12 2,-2 1,-1 3,-4 2,-4 3,-2 7,-6 2,-2 3,-2 4,-4 3,-3 2,-5 5,-8 4,-5 4,-1 9,-11l5 -12c3,-6 5,-2 7,-11 4,-20 5,-53 0,-72 -1,-5 -1,-10 -4,-14 -4,-5 -4,-3 -6,-11 -1,-2 -4,-9 -6,-12l-15 -19c-2,-2 -3,-2 -5,-4 -11,-8 -7,-10 -25,-17 -10,-5 -9,-9 -23,-11 -36,-7 -28,-5 -64,-5 -8,0 -116,-1 -122,0 -3,1 -11,5 -13,6 -6,4 -17,28 0,40 13,10 2,11 29,11z"/>
    <path class="fil1" d="M359 430c-5,-2 -4,-6 -9,-9 -5,-4 -7,-4 -9,-10 -5,-13 -19,-30 -8,-54 2,-4 9,-18 13,-21l5 -6c2,-1 -1,-1 2,-2 1,-3 -1,-2 6,-7 8,-5 16,-9 25,-11 15,-4 120,-2 141,-2 15,0 31,0 47,0 19,0 35,4 37,-11 1,-9 3,-37 -2,-43 -6,-8 -6,-7 -18,-7 -25,0 -198,-1 -213,1 -32,6 -27,6 -52,20 -4,2 -22,18 -25,22 -3,4 -12,12 -15,20 -7,15 -10,16 -12,23 -5,25 -8,61 1,85l16 31 23 25c5,5 8,5 13,10 4,4 10,6 15,9l16 8c8,2 11,3 20,4l165 0c9,-1 10,-3 15,-8 11,-8 13,-22 9,-35 -3,-8 -5,-9 -11,-13 -18,-11 -38,-7 -64,-6 -16,0 -32,0 -48,0 -21,0 -54,1 -71,-7 -2,-2 -1,-1 -4,-2 -1,0 -3,0 -4,-1 -5,-2 -2,0 -4,-3z"/>
   </g>
  </g>
 </g>
</svg>
